<svg id="Layer_1" data-name="Layer 1" xmlns="http://www.w3.org/2000/svg" viewBox="0 0 163.49 59.6"><title>bizagi-logo</title><path d="M162.79,13.77A2.49,2.49,0,0,0,161,13h-4.24a.84.84,0,0,0-.84.84V43.22a2.39,2.39,0,0,0,.74,1.73,2.44,2.44,0,0,0,1.74.74h4.28a.82.82,0,0,0,.81-.84V15.52A2.47,2.47,0,0,0,162.79,13.77Z"/><path d="M44.14,13H39.88a.84.84,0,0,0-.84.84V43.22A2.39,2.39,0,0,0,39.78,45a2.48,2.48,0,0,0,1.76.74H45.8a.84.84,0,0,0,.84-.84V15.52a2.45,2.45,0,0,0-.74-1.76A2.48,2.48,0,0,0,44.14,13Z"/><path d="M29.41,17.78A17.35,17.35,0,0,0,17.21,13a16.29,16.29,0,0,0-7.59,1.85C8.92,15.26,7.89,16,7.86,16s0,.09,0,.07a13.42,13.42,0,0,1,4.76-1.56,0,0,0,0,1,0,.08,15.12,15.12,0,0,0-4.8,2c-.05,0,0,.09,0,.07a13.27,13.27,0,0,1,4.81-1.32s.07.06,0,.08a16.83,16.83,0,0,0-4.84,1.8c-.05,0,0,.09,0,.08a13.64,13.64,0,0,1,4.85-1.06s.07.07,0,.08a19.18,19.18,0,0,0-4.89,1.52c-.06,0,0,.09,0,.07a15.36,15.36,0,0,1,4.9-.77,0,0,0,0,1,0,.08,21.29,21.29,0,0,0-4.93,1.26s0,.09,0,.08a18.26,18.26,0,0,1,5-.54s.06.07,0,.08a27.47,27.47,0,0,0-5,1,0,0,0,0,0,0,.08,25.68,25.68,0,0,1,5-.29s.06.07,0,.08a36.84,36.84,0,0,0-5,.79,0,0,0,0,0,0,.08c1.52-.07,2.09-.05,4.7,0h4.62A9.34,9.34,0,0,1,24,22.69a9.06,9.06,0,0,1,2.8,6.63,9.49,9.49,0,0,1-9.62,9.49A9.19,9.19,0,0,1,10.37,36a9.19,9.19,0,0,1-2.78-6.71V2.49A2.49,2.49,0,0,0,6.86.72,2.57,2.57,0,0,0,5.08,0H.84A.83.83,0,0,0,0,.82V29.32A15.49,15.49,0,0,0,5.05,40.88,17.09,17.09,0,0,0,17.21,45.7,17.18,17.18,0,0,0,29.4,40.88a15.4,15.4,0,0,0,5.07-11.56A15.29,15.29,0,0,0,29.41,17.78Z"/><path d="M108.78,17.84a17.77,17.77,0,0,0-24.31,0A15.4,15.4,0,0,0,79.4,29.4a15.24,15.24,0,0,0,5.07,11.52A17.07,17.07,0,0,0,96.59,45.7a16.22,16.22,0,0,0,5.78-1,13.5,13.5,0,0,0,3.5-1.85,0,0,0,0,0,0-.07,12.15,12.15,0,0,1-4.74,1.49s-.07-.06,0-.08a18.14,18.14,0,0,0,4.79-2s0-.09,0-.07a12.33,12.33,0,0,1-4.77,1.31,0,0,0,1,1,0-.08,21,21,0,0,0,4.82-1.82s0-.09,0-.07A12.93,12.93,0,0,1,101,42.53s-.06-.07,0-.08a23,23,0,0,0,4.85-1.59,0,0,0,0,0,0-.07,13.76,13.76,0,0,1-4.85.84s-.06-.07,0-.08a25.77,25.77,0,0,0,4.88-1.36s0-.09,0-.07a16.65,16.65,0,0,1-4.88.61,0,0,0,1,1,0-.08,30.88,30.88,0,0,0,4.9-1.12,0,0,0,0,0,0-.08,21.34,21.34,0,0,1-4.92.38,0,0,0,1,1,0-.08,47.82,47.82,0,0,0,4.93-.89,0,0,0,0,0,0-.08c-2.85.2-4.18,0-6.11,0H96.57a9.18,9.18,0,0,1-6.77-2.76A9,9,0,0,1,87,29.4a9.62,9.62,0,0,1,19.24,0V44.82a.87.87,0,0,0,.87.87H113a.84.84,0,0,0,.84-.84V29.4A15.37,15.37,0,0,0,108.78,17.84Z"/><path d="M53.77,20h8.17c.9,0,.58,0,2.91-.09,2.09-.09,3.43-.75,5-.89a0,0,0,0,0,0-.08c-1.6,0-3.91.2-4.42.25-.06,0,0-.07,0-.08a31.06,31.06,0,0,1,5.15-.82,0,0,0,0,0,0-.08,34,34,0,0,0-4.46.19c-.06,0,0-.08,0-.08a23.78,23.78,0,0,1,5.11-.76,0,0,0,1,0,0-.08,29.88,29.88,0,0,0-4.54.15c-.06,0,0-.08,0-.08a26.52,26.52,0,0,1,5.08-.7,0,0,0,0,0,0-.08,23.12,23.12,0,0,0-4.56,0c-.06,0,0-.08,0-.08a20.64,20.64,0,0,1,4.94-.59,0,0,0,0,0,0-.08,18.88,18.88,0,0,0-4.56,0c-.07,0,0-.08,0-.08a19.25,19.25,0,0,1,4.83-.54,0,0,0,0,0,0-.08,15.93,15.93,0,0,0-4.56-.09c-.07,0,0-.08,0-.08a16.71,16.71,0,0,1,4.61-.42,0,0,0,0,0,0-.08A14.12,14.12,0,0,0,68,14.57c-.07,0,0-.08,0-.08a13,13,0,0,1,4.29-.39s.05-.07,0-.08a11.38,11.38,0,0,0-4.47-.24c-.06,0-.06-.07,0-.08a13.4,13.4,0,0,1,3.93-.31,0,0,0,0,0,0-.08,8.49,8.49,0,0,0-2-.29H52.12a.84.84,0,0,0-.84.84v3.66A2.5,2.5,0,0,0,52,19.3,2.44,2.44,0,0,0,53.77,20Z"/><path d="M74.18,38.68H66c-.89,0-.58,0-2.91.09-2.11.09-3.43.75-5.05.89a0,0,0,0,0,0,.08c1.6,0,3.92-.2,4.42-.25.06,0,0,.07,0,.08a31,31,0,0,1-5.16.82,0,0,0,0,0,0,.08,34.35,34.35,0,0,0,4.46-.19c.06,0,0,.08,0,.08a24.07,24.07,0,0,1-5.11.76,0,0,0,1,0,0,.08,27,27,0,0,0,4.52-.15c.06,0,0,.08,0,.08a24.62,24.62,0,0,1-5.06.72,0,0,0,0,0,0,.08,23.19,23.19,0,0,0,4.56,0c.06,0,0,.08,0,.08a20.78,20.78,0,0,1-5,.59,0,0,0,0,0,0,.08,18.94,18.94,0,0,0,4.58,0c.07,0,0,.08,0,.08a19.19,19.19,0,0,1-4.85.55,0,0,0,0,0,0,.08,16.06,16.06,0,0,0,4.58.09c.07,0,0,.08,0,.08a16.84,16.84,0,0,1-4.63.42s0,.07,0,.08a14.62,14.62,0,0,0,4.55.14c.07,0,0,.08,0,.08a13.12,13.12,0,0,1-4.31.39s-.05.07,0,.08a11.51,11.51,0,0,0,4.5.24c.06,0,.06.07,0,.08a13.41,13.41,0,0,1-3.93.31,0,0,0,0,0,0,.08,8.48,8.48,0,0,0,2,.29H75.84a.84.84,0,0,0,.84-.84V41.2a2.5,2.5,0,0,0-.74-1.78A2.45,2.45,0,0,0,74.18,38.68Z"/><path d="M58.61,38.67,74.68,24.62a6.84,6.84,0,0,0-2.32-11.07s-.07,0,0,0c1.56,1.51-.48,4-2,5.56l-17,15a6.91,6.91,0,0,0-1.91,4.74A6.68,6.68,0,0,0,55.29,45s0,0,0,0C53.83,42.74,58.6,38.67,58.61,38.67Z"/><path d="M146.18,17.84a17.86,17.86,0,0,0-24.39,0,15.47,15.47,0,0,0-5.05,11.56,15.31,15.31,0,0,0,5,11.52A17.17,17.17,0,0,0,134,45.7h.2l.93,0h0a16.22,16.22,0,0,0,4.7-1,13.62,13.62,0,0,0,3.46-1.85,0,0,0,0,0,0-.07,11.94,11.94,0,0,1-4.74,1.49s-.07-.06,0-.08a17.79,17.79,0,0,0,4.79-2s0-.09,0-.07a12.13,12.13,0,0,1-4.77,1.31,0,0,0,1,1,0-.08,20.71,20.71,0,0,0,4.81-1.82s0-.09,0-.07a12.73,12.73,0,0,1-4.82,1.07s-.06-.07,0-.08a22.86,22.86,0,0,0,4.85-1.59,0,0,0,0,0,0-.07,13.58,13.58,0,0,1-4.85.84s-.06-.07,0-.08a25.77,25.77,0,0,0,4.88-1.36,0,0,0,0,0,0-.07,16.47,16.47,0,0,1-4.88.61,0,0,0,1,1,0-.08,30.9,30.9,0,0,0,4.9-1.12,0,0,0,0,0,0-.08,21.22,21.22,0,0,1-4.92.38s-.07-.07,0-.08a47.86,47.86,0,0,0,4.93-.89,0,0,0,0,0,0-.08c-2.81.2-4.15,0-6.11,0h-3.18a9.27,9.27,0,0,1-6.81-2.76,9,9,0,0,1-2.83-6.65,9.14,9.14,0,0,1,2.8-6.69,9.6,9.6,0,0,1,16.44,6.69s.09,14.83.08,15a8.45,8.45,0,0,1-2.9,5.69A9.54,9.54,0,0,1,134,52.72h-7.67a2.5,2.5,0,0,0-1.78.74,2.53,2.53,0,0,0-.69,1.77v3.53a.8.8,0,0,0,.79.84H134a17.43,17.43,0,0,0,12.19-4.75,15.39,15.39,0,0,0,5.06-11.54V29.4A15.5,15.5,0,0,0,146.18,17.84Z"/></svg>